<?xml version="1.0" encoding="utf-8"?>
<!-- Generator: Adobe Illustrator 25.0.1, SVG Export Plug-In . SVG Version: 6.00 Build 0)  -->
<svg version="1.1" id="Layer_1" xmlns="http://www.w3.org/2000/svg" xmlns:xlink="http://www.w3.org/1999/xlink" x="0px" y="0px"
	 viewBox="0 0 269.07 55" style="enable-background:new 0 0 269.07 55;" xml:space="preserve">
<style type="text/css">
	.st0{fill:#1A3247;}
	.st1{fill:#4BC7F1;}
</style>
<g>
	<path class="st0" d="M85.74,15.61H78.8c-1.01,0-1.82-0.35-2.51-1.05c-0.36-0.38-0.61-0.8-0.77-1.26h-4.73
		c0.24,1.74,0.98,3.27,2.26,4.57c1.57,1.57,3.49,2.37,5.76,2.37h6.94c0.98,0,1.78,0.35,2.48,1.05c0.66,0.7,1.05,1.5,1.05,2.44
		c0,0.49-0.1,0.94-0.28,1.36c-0.17,0.46-0.42,0.8-0.73,1.12c-0.31,0.31-0.7,0.56-1.15,0.73c-0.42,0.18-0.87,0.25-1.36,0.25H75.62
		l-2.18,4.67h12.29c2.27,0,4.19-0.8,5.76-2.37c1.6-1.61,2.41-3.53,2.41-5.76c0-2.23-0.8-4.15-2.41-5.76
		C89.92,16.41,88.01,15.61,85.74,15.61z"/>
	<rect x="95.63" y="3.96" class="st0" width="22.89" height="4.67"/>
	<polygon class="st0" points="104.91,13.31 104.86,13.31 104.86,31.87 104.91,31.87 109.53,31.87 109.58,31.87 109.58,13.31 
		109.53,13.31 	"/>
	<path class="st0" d="M154.39,17.91l-4.15-0.03l8.09,13.99h5.34l-5.72-10.01c1.64-0.66,3-1.78,4.08-3.35
		c1.12-1.57,1.64-3.32,1.64-5.27c0-2.55-0.91-4.71-2.72-6.56c-1.82-1.82-4.01-2.72-6.56-2.72h-12.25l2.41,4.15l0.53,0.53h9.31
		c1.25,0,2.34,0.45,3.24,1.36c0.94,0.91,1.4,1.99,1.4,3.24c0,1.29-0.45,2.4-1.4,3.31C156.73,17.46,155.64,17.91,154.39,17.91z"/>
	<polygon class="st0" points="187.94,8.64 187.94,3.96 169.34,3.96 173.98,8.64 	"/>
	<polygon class="st0" points="172.78,17.88 172.78,31.87 177.42,31.87 177.42,22.59 191.37,22.59 191.37,17.88 177.42,17.88 	"/>
	<polygon class="st0" points="230.88,4.73 230.88,3.96 226.24,3.96 226.24,4.73 226.24,25.56 230.88,20.88 	"/>
	<polygon class="st0" points="244.83,27.19 230.88,27.19 226.24,31.87 244.83,31.87 	"/>
	<polygon class="st0" points="255.11,27.19 250.47,31.87 269.07,31.87 269.07,27.19 	"/>
	<polygon class="st0" points="255.11,4.73 255.11,3.96 250.47,3.96 250.47,4.73 250.47,25.56 255.11,20.88 	"/>
	<path class="st0" d="M78.8,8.64h8.46l1.93-4.67H78.8c-0.18,0-0.35,0.04-0.52,0.05c-2.04,0.12-3.79,0.88-5.23,2.36
		c-0.68,0.7-1.19,1.46-1.58,2.27h6.82H78.8z"/>
	<polygon class="st0" points="141.45,22.59 141.45,22.59 132.14,3.96 118.19,31.87 123.35,31.87 125.72,27.19 128.02,22.59 
		132.14,14.39 136.22,22.59 140.17,30.42 140.9,31.87 146.09,31.87 144.76,29.24 	"/>
	<polygon class="st0" points="219.77,29.24 219.78,29.24 215.71,21.07 215.7,21.08 207.14,3.96 193.18,31.87 198.35,31.87 
		200.72,27.19 203.02,22.59 207.14,14.39 211.22,22.59 211.24,22.59 214.25,28.56 215.89,31.87 221.09,31.87 	"/>
	<polygon class="st1" points="9.69,13.51 5.1,16.5 9.8,18.02 	"/>
	<polygon class="st1" points="21.83,33.35 28,25.08 18.09,21.87 	"/>
	<polygon class="st1" points="35.14,34.17 28.9,25.72 22.61,34.17 	"/>
	<polygon class="st1" points="35.95,33.41 39.72,21.87 29.81,25.09 	"/>
	<polygon class="st1" points="28.35,0 24.57,2.83 28.35,4.29 	"/>
	<polygon class="st1" points="28.35,5.47 23.26,3.51 13.07,0.22 28.35,11.26 	"/>
	<polygon class="st1" points="16.36,20.15 10.55,2.34 10.91,18.38 	"/>
	<polygon class="st1" points="27.96,12.35 10.96,0.05 17.48,20.01 	"/>
	<polygon class="st1" points="28.35,13.43 18.31,20.78 28.35,24.03 	"/>
	<polygon class="st1" points="48.11,13.51 48.01,18.02 52.71,16.5 	"/>
	<polygon class="st1" points="51.05,22.48 53.03,17.56 48.48,19.03 	"/>
	<polygon class="st1" points="46.89,18.38 47.26,2.34 41.45,20.15 	"/>
	<polygon class="st1" points="29.46,13.43 29.46,24.03 39.5,20.78 	"/>
	<polygon class="st1" points="34.51,3.52 29.46,5.47 29.46,11.26 44.73,0.22 	"/>
	<polygon class="st1" points="40.33,20.01 46.84,0.05 29.84,12.35 	"/>
	<polygon class="st1" points="29.46,0 29.46,4.29 33.23,2.83 	"/>
	<polygon class="st1" points="56.85,32.1 47.36,19.39 41.9,21.16 	"/>
	<polygon class="st1" points="37.86,45.11 43.22,45.11 40.49,41.41 	"/>
	<polygon class="st1" points="44.08,44.41 45.3,39.76 41.51,40.94 	"/>
	<polygon class="st1" points="22.46,35.27 28.9,55 35.34,35.27 	"/>
	<polygon class="st1" points="36.34,35.79 30.56,53.49 39.79,40.47 	"/>
	<polygon class="st1" points="40.82,40 55.88,35.27 37.33,35.27 	"/>
	<polygon class="st1" points="36.87,34.17 57.81,34.17 40.9,21.81 	"/>
	<polygon class="st1" points="10.44,19.39 0.96,32.1 15.91,21.16 	"/>
	<polygon class="st1" points="16.9,21.81 0,34.17 20.94,34.17 	"/>
	<polygon class="st1" points="9.33,19.03 4.78,17.56 6.75,22.48 	"/>
	<polygon class="st1" points="20.41,35.27 1.92,35.27 16.9,39.97 	"/>
	<polygon class="st1" points="14.45,45.11 19.95,45.11 17.27,41.33 	"/>
	<polygon class="st1" points="17.96,40.4 27.25,53.49 21.45,35.73 	"/>
	<polygon class="st1" points="12.35,39.7 13.6,44.41 16.2,40.91 	"/>
	<polygon class="st1" points="84.05,45.18 81.64,36.31 80.11,36.31 77.58,45.21 75.29,36.31 73.83,36.31 76.77,46.82 78.29,46.8 
		80.82,38.36 83.26,46.8 84.79,46.8 87.83,36.31 86.36,36.31 	"/>
	<polygon class="st1" points="101.24,46.8 106.88,46.8 106.88,45.67 102.61,45.67 102.61,42.06 106.43,42.06 106.43,40.93 
		102.61,40.93 102.61,37.42 106.88,37.42 106.88,36.29 101.24,36.29 	"/>
	<path class="st1" d="M126.12,41.4c1.01-0.33,1.84-1.1,1.84-2.42c0-1.46-1.11-2.66-3.33-2.66h-3.76V46.8h3.91
		c2.17,0,3.42-1.23,3.42-2.82C128.2,42.69,127.26,41.59,126.12,41.4z M122.23,37.44h2.27c1.34,0,2.05,0.66,2.05,1.7
		c0,1.07-0.74,1.7-2.02,1.7h-2.3V37.44z M124.66,45.67h-2.42v-3.7h2.38c1.34,0,2.21,0.72,2.21,1.88
		C126.83,45,126.01,45.67,124.66,45.67z"/>
	<path class="st1" d="M161.19,36.31h-3.27V46.8h3.27c3.45,0,5.57-1.97,5.57-5.22C166.76,38.33,164.63,36.31,161.19,36.31z
		 M161.19,45.67h-1.9v-8.25h1.9c2.74,0,4.17,1.6,4.17,4.16C165.36,44.14,163.93,45.67,161.19,45.67z"/>
	<polygon class="st1" points="180.47,46.8 186.11,46.8 186.11,45.67 181.84,45.67 181.84,42.06 185.66,42.06 185.66,40.93 
		181.84,40.93 181.84,37.42 186.11,37.42 186.11,36.29 180.47,36.29 	"/>
	<path class="st1" d="M201.25,39.03c0-1.13,0.89-1.72,2.02-1.69c1.28,0.02,1.94,0.81,2.03,1.52h1.51c-0.17-1.6-1.48-2.69-3.48-2.69
		c-2.08,0-3.48,1.17-3.48,2.91c0,3.9,5.68,2.09,5.68,4.92c0,0.99-0.78,1.75-2.11,1.75c-1.46,0-2.08-0.87-2.17-1.75h-1.46
		c0.03,1.73,1.52,2.91,3.63,2.91c2.27,0,3.49-1.48,3.49-2.97C206.91,40.06,201.25,41.74,201.25,39.03z"/>
	<rect x="220.83" y="36.31" class="st1" width="1.37" height="10.49"/>
	<path class="st1" d="M240.7,42.26h4.18c-0.21,2.08-1.63,3.4-3.69,3.4c-2.21,0-3.87-1.6-3.87-4.11c0-2.53,1.66-4.13,3.87-4.13
		c1.48,0,2.62,0.71,3.19,1.93h1.64c-0.78-2.02-2.62-3.16-4.83-3.16c-2.95,0-5.27,2.21-5.27,5.36c0,3.15,2.32,5.35,5.27,5.35
		c2.85,0,4.91-2.09,5.15-4.7v-1.05h-5.65V42.26z"/>
	<polygon class="st1" points="266.93,44.63 261.42,36.29 260.05,36.29 260.05,46.8 261.42,46.8 261.42,38.45 266.93,46.8 
		268.3,46.8 268.3,36.29 266.93,36.29 	"/>
</g>
</svg>
